<svg width="40" height="40" viewBox="0 0 40 40" fill="none" xmlns="http://www.w3.org/2000/svg">
<path fill-rule="evenodd" clip-rule="evenodd" d="M25.0761 6.01639C24.1831 5.51699 23.1858 5.18432 22.1275 5.05715C21.652 5 21.1013 5 20 5C18.8987 5 18.348 5 17.8725 5.05715C14.5356 5.45814 11.8052 7.90201 11.0381 11.1742C10.9288 11.6405 10.868 12.1878 10.7464 13.2824L10.3267 17.0594C10.1934 18.2592 10.1268 18.8591 9.97306 19.4371C9.88307 19.7755 9.77096 20.1077 9.63745 20.4314C9.40941 20.9843 9.09886 21.5019 8.47776 22.5371L6.8174 25.3043C6.01164 26.6473 5.60876 27.3187 5.89599 27.826C6.18322 28.3333 6.96628 28.3333 8.53238 28.3333H31.4676C33.0337 28.3333 33.8168 28.3333 34.104 27.826C34.3912 27.3187 33.9884 26.6473 33.1826 25.3043L31.5222 22.5371C30.9011 21.5019 30.5906 20.9843 30.3626 20.4314C30.229 20.1077 30.1169 19.7755 30.0269 19.4371C29.8732 18.8591 29.8066 18.2592 29.6733 17.0594L29.6733 17.0594L29.5912 16.3203C26.2839 16.1096 23.6667 13.3605 23.6667 10C23.6667 8.49059 24.1947 7.10451 25.0761 6.01639ZM27.3746 7.94594C26.9311 8.51201 26.6667 9.22513 26.6667 10C26.6667 11.583 27.7701 12.9083 29.2498 13.2486C29.1307 12.1765 29.07 11.6357 28.9619 11.1742C28.6783 9.96443 28.1263 8.86789 27.3746 7.94594Z" fill="white"/>
<path d="M15 28.3333C15 28.99 15.1293 29.6401 15.3806 30.2468C15.6319 30.8534 16.0002 31.4046 16.4645 31.8689C16.9288 32.3332 17.48 32.7015 18.0866 32.9527C18.6932 33.204 19.3434 33.3333 20 33.3333C20.6566 33.3333 21.3068 33.204 21.9134 32.9527C22.52 32.7015 23.0712 32.3332 23.5355 31.8689C23.9998 31.4046 24.3681 30.8534 24.6194 30.2468C24.8707 29.6401 25 28.99 25 28.3333L20 28.3333H15Z" fill="white"/>
<circle cx="30" cy="9.99999" r="3.83333" fill="#A6203F" stroke="#A6203F"/>
</svg>
