<svg width="30" height="38" viewBox="0 0 30 38" fill="none" xmlns="http://www.w3.org/2000/svg">
<path d="M4.375 16.25C4.20924 16.25 4.05027 16.3158 3.93306 16.4331C3.81585 16.5503 3.75 16.7092 3.75 16.875V33.125C3.75 33.47 4.03 33.75 4.375 33.75H25.625C25.7908 33.75 25.9497 33.6842 26.0669 33.5669C26.1842 33.4497 26.25 33.2908 26.25 33.125V16.875C26.25 16.7092 26.1842 16.5503 26.0669 16.4331C25.9497 16.3158 25.7908 16.25 25.625 16.25H23.125C22.6277 16.25 22.1508 16.0525 21.7992 15.7008C21.4475 15.3492 21.25 14.8723 21.25 14.375C21.25 13.8777 21.4475 13.4008 21.7992 13.0492C22.1508 12.6975 22.6277 12.5 23.125 12.5H25.625C28.04 12.5 30 14.46 30 16.875V33.125C30 34.2853 29.5391 35.3981 28.7186 36.2186C27.8981 37.0391 26.7853 37.5 25.625 37.5H4.375C3.21468 37.5 2.10188 37.0391 1.28141 36.2186C0.460936 35.3981 0 34.2853 0 33.125V16.875C0 14.46 1.96 12.5 4.375 12.5H6.875C7.37228 12.5 7.84919 12.6975 8.20083 13.0492C8.55246 13.4008 8.75 13.8777 8.75 14.375C8.75 14.8723 8.55246 15.3492 8.20083 15.7008C7.84919 16.0525 7.37228 16.25 6.875 16.25H4.375ZM14.5575 0.442498C14.6156 0.384294 14.6845 0.338115 14.7605 0.306607C14.8364 0.275099 14.9178 0.258881 15 0.258881C15.0822 0.258881 15.1636 0.275099 15.2395 0.306607C15.3155 0.338115 15.3844 0.384294 15.4425 0.442498L22.6825 7.6825C22.7701 7.76991 22.8298 7.88137 22.854 8.00276C22.8783 8.12415 22.8659 8.24999 22.8185 8.36433C22.7711 8.47867 22.6908 8.57636 22.5878 8.64502C22.4848 8.71368 22.3638 8.75022 22.24 8.75H16.875V23.125C16.875 23.6223 16.6775 24.0992 16.3258 24.4508C15.9742 24.8025 15.4973 25 15 25C14.5027 25 14.0258 24.8025 13.6742 24.4508C13.3225 24.0992 13.125 23.6223 13.125 23.125V8.75H7.76C7.63622 8.75022 7.51517 8.71368 7.41218 8.64502C7.3092 8.57636 7.22892 8.47867 7.18152 8.36433C7.13412 8.24999 7.12174 8.12415 7.14595 8.00276C7.17016 7.88137 7.22987 7.76991 7.3175 7.6825L14.5575 0.442498Z" fill="#D9D9D9"/>
</svg>
