<svg width="18" height="18" viewBox="0 0 18 18" fill="none" xmlns="http://www.w3.org/2000/svg">
<path d="M16.75 18H12.25C11.5595 18 11 17.4835 11 16.8462V12.6923C11 12.1823 10.5525 11.7692 10 11.7692H8C7.4475 11.7692 7 12.1823 7 12.6923V16.8462C7 17.4835 6.4405 18 5.75 18H1.25C0.5595 18 0 17.4835 0 16.8462V8.03677C0 6.97569 0.527 5.97323 1.4295 5.31692L8.5355 0.148154C8.808 -0.0493846 9.192 -0.0493846 9.464 0.148154L16.571 5.31692C17.4735 5.97323 18 6.97523 18 8.03585V16.8462C18 17.4835 17.4405 18 16.75 18Z" fill="currentColor"/>
</svg>
