<svg width="18" height="18" viewBox="0 0 18 18" fill="none" xmlns="http://www.w3.org/2000/svg">
<path d="M5.46866 0V15.7244L0 17.7949V2.07055L5.46866 0Z" fill="currentColor"/>
<path d="M15.1482 16.7852L12.4998 17.7948V16.162C12.6013 16.1344 12.699 16.0989 12.7967 16.0634L12.9021 16.024C12.9998 15.9846 13.0974 15.9451 13.1951 15.8978C13.2225 15.8893 13.2487 15.8774 13.2732 15.8623C13.3528 15.827 13.4298 15.7862 13.5037 15.74L13.5427 15.7203H13.574C13.6755 15.6651 13.7732 15.6059 13.8709 15.5428L15.1482 16.7852Z" fill="currentColor"/>
<path d="M17.9684 0V15.7244L17.5778 15.8821L15.5622 13.8471C16.1221 12.9575 16.4151 11.9234 16.406 10.8694C16.406 10.7077 16.406 10.55 16.406 10.3922C16.406 10.2344 16.3747 10.1043 16.3513 9.96231C16.3513 9.91104 16.3513 9.85977 16.3239 9.81244C16.2535 9.42591 16.1395 9.04879 15.9841 8.68843C15.9568 8.61744 15.9255 8.55434 15.8943 8.48729C15.863 8.42024 15.8513 8.39658 15.8279 8.34925L15.7497 8.19938C15.5934 7.91134 15.4117 7.6381 15.2068 7.383C15.1326 7.29228 15.0583 7.20552 14.9802 7.1227C14.9244 7.0558 14.8643 6.99257 14.8005 6.93339C14.7576 6.89001 14.7146 6.84662 14.6677 6.80718C14.6514 6.7881 14.6331 6.7709 14.613 6.75591C14.5115 6.66126 14.4021 6.57055 14.2927 6.48378C14.0348 6.28651 13.7603 6.11232 13.4724 5.96319L13.3201 5.88825L13.1482 5.80938L12.9607 5.74233C12.8552 5.69895 12.7459 5.65951 12.6365 5.62401L12.4998 5.57668V2.07055L17.9684 0Z" fill="currentColor"/>
<path d="M6.37488 13.9102C6.38252 13.9268 6.39168 13.9426 6.40222 13.9575C6.43738 14.0088 6.47253 14.06 6.51159 14.1074L6.37488 13.9102ZM6.37488 13.9102C6.38252 13.9268 6.39168 13.9426 6.40222 13.9575C6.43738 14.0088 6.47253 14.06 6.51159 14.1074L6.37488 13.9102ZM6.37488 13.9102C6.38252 13.9268 6.39168 13.9426 6.40222 13.9575C6.43738 14.0088 6.47253 14.06 6.51159 14.1074L6.37488 13.9102ZM6.37488 13.9102C6.38252 13.9268 6.39168 13.9426 6.40222 13.9575C6.43738 14.0088 6.47253 14.06 6.51159 14.1074L6.37488 13.9102Z" fill="currentColor"/>
<path d="M11.7185 16.3357V17.7949L6.24989 15.7243V13.713C6.28896 13.78 6.33192 13.847 6.37489 13.9101C6.38254 13.9267 6.39169 13.9426 6.40223 13.9575C6.43739 14.0087 6.47255 14.06 6.51161 14.1073C6.55113 14.1665 6.59418 14.2231 6.64051 14.2769C6.70301 14.3558 6.76551 14.4347 6.83191 14.5096L6.91394 14.6043L7.10535 14.8054C7.27229 14.9707 7.44975 15.1249 7.63659 15.2669C7.69127 15.3102 7.74596 15.3536 7.80455 15.3931C7.86315 15.4325 7.95689 15.4995 8.03502 15.5469L8.24595 15.6731C8.3358 15.7243 8.42564 15.7756 8.51548 15.819C8.56301 15.8466 8.61265 15.8703 8.66391 15.89L8.81235 15.957L8.99985 16.032C9.0988 16.0714 9.20036 16.1069 9.30453 16.1385L9.44906 16.1818L9.55843 16.2134C9.7982 16.2776 10.0424 16.3237 10.2889 16.3514H10.449C10.5311 16.3514 10.6092 16.3514 10.6912 16.3514C10.7733 16.3514 10.8553 16.3514 10.9373 16.3514H11.1561L11.3279 16.3909C11.4217 16.3909 11.5154 16.3909 11.6092 16.3633L11.7185 16.3357Z" fill="currentColor"/>
<path d="M11.7185 2.07055V5.40315H11.6092C11.5154 5.40315 11.4217 5.37949 11.3279 5.37555H11.1561H10.9373C10.7733 5.37555 10.6092 5.37555 10.449 5.39921H10.2889C9.72625 5.46419 9.17761 5.61999 8.66391 5.86065C8.61265 5.88029 8.56301 5.90403 8.51548 5.93164C8.42564 5.97502 8.3358 6.02629 8.24595 6.07756C8.15611 6.12883 8.10533 6.15644 8.03502 6.20377C7.96471 6.25109 7.88268 6.30236 7.80455 6.35758C7.74605 6.39612 7.68995 6.43827 7.63659 6.48378C7.45034 6.6194 7.27289 6.76695 7.10535 6.9255L7.0116 7.02015C6.87952 7.15723 6.75561 7.3021 6.64051 7.45399C6.59298 7.50683 6.54987 7.56355 6.51161 7.62357C6.41786 7.75372 6.33192 7.88387 6.24989 8.01796V0L11.7185 2.07055Z" fill="currentColor"/>
<path d="M11.3279 13.9969C11.3604 14.0008 11.3931 14.0008 11.4256 13.9969H11.5232H11.3279ZM11.4256 7.75374C11.3931 7.74989 11.3604 7.74989 11.3279 7.75374L11.5232 7.7853L11.4256 7.75374ZM11.5584 7.77741H11.5232L11.6873 7.8129L11.5584 7.77741ZM11.3279 13.9969C11.3604 14.0008 11.3931 14.0008 11.4256 13.9969H11.5232H11.3279ZM11.4256 7.75374C11.3931 7.74989 11.3604 7.74989 11.3279 7.75374L11.5232 7.7853L11.4256 7.75374ZM11.5584 7.77741H11.5232L11.6873 7.8129L11.5584 7.77741Z" fill="currentColor"/>
<path d="M13.5779 7.96267L13.5427 7.93506L13.6443 8.02971C13.6248 8.00605 13.6013 7.98633 13.5779 7.96267ZM12.4998 8.1362C12.5405 8.15693 12.5797 8.18065 12.617 8.20719L12.4998 8.1362ZM13.5779 7.96267L13.5427 7.93506L13.6443 8.02971C13.6248 8.00605 13.6013 7.98633 13.5779 7.96267ZM12.4998 8.1362C12.5405 8.15693 12.5797 8.18065 12.617 8.20719L12.4998 8.1362ZM13.5779 7.96267L13.5427 7.93506L13.6443 8.02971C13.6248 8.00605 13.6013 7.98633 13.5779 7.96267ZM12.4998 8.1362C12.5405 8.15693 12.5797 8.18065 12.617 8.20719L12.4998 8.1362ZM13.5779 7.96267L13.5427 7.93506L13.6443 8.02971C13.6248 8.00605 13.6013 7.98633 13.5779 7.96267ZM12.4998 8.1362C12.5405 8.15693 12.5797 8.18065 12.617 8.20719L12.4998 8.1362ZM13.5779 7.96267L13.5427 7.93506L13.6443 8.02971C13.6248 8.00605 13.6013 7.98633 13.5779 7.96267ZM12.4998 8.1362C12.5405 8.15693 12.5797 8.18065 12.617 8.20719L12.4998 8.1362ZM13.5779 7.96267L13.5427 7.93506L13.6443 8.02971C13.6248 8.00605 13.6013 7.98633 13.5779 7.96267ZM12.4998 8.1362C12.5405 8.15693 12.5797 8.18065 12.617 8.20719L12.4998 8.1362ZM13.5779 7.96267L13.5427 7.93506L13.6443 8.02971C13.6248 8.00605 13.6013 7.98633 13.5779 7.96267ZM12.4998 8.1362C12.5405 8.15693 12.5797 8.18065 12.617 8.20719L12.4998 8.1362ZM13.5779 7.96267L13.5427 7.93506L13.6443 8.02971C13.6248 8.00605 13.6013 7.98633 13.5779 7.96267ZM12.4998 8.1362C12.5405 8.15693 12.5797 8.18065 12.617 8.20719L12.4998 8.1362ZM13.5779 7.96267L13.5427 7.93506L13.6443 8.02971C13.6248 8.00605 13.6013 7.98633 13.5779 7.96267ZM12.4998 8.1362C12.5405 8.15693 12.5797 8.18065 12.617 8.20719L12.4998 8.1362ZM13.5779 7.96267L13.5427 7.93506L13.6443 8.02971C13.6248 8.00605 13.6013 7.98633 13.5779 7.96267ZM12.4998 8.1362C12.5405 8.15693 12.5797 8.18065 12.617 8.20719L12.4998 8.1362ZM13.5779 7.96267L13.5427 7.93506L13.6443 8.02971C13.6248 8.00605 13.6013 7.98633 13.5779 7.96267ZM12.4998 8.1362C12.5405 8.15693 12.5797 8.18065 12.617 8.20719L12.4998 8.1362ZM13.5779 7.96267L13.5427 7.93506L13.6443 8.02971C13.6248 8.00605 13.6013 7.98633 13.5779 7.96267ZM12.4998 8.1362C12.5405 8.15693 12.5797 8.18065 12.617 8.20719L12.4998 8.1362ZM13.5779 7.96267L13.5427 7.93506L13.6443 8.02971C13.6248 8.00605 13.6013 7.98633 13.5779 7.96267ZM12.4998 8.1362C12.5405 8.15693 12.5797 8.18065 12.617 8.20719L12.4998 8.1362ZM13.5779 7.96267L13.5427 7.93506L13.6443 8.02971C13.6248 8.00605 13.6013 7.98633 13.5779 7.96267ZM12.4998 8.1362C12.5405 8.15693 12.5797 8.18065 12.617 8.20719L12.4998 8.1362ZM13.5779 7.96267L13.5427 7.93506L13.6443 8.02971C13.6248 8.00605 13.6013 7.98633 13.5779 7.96267ZM12.4998 8.1362C12.5405 8.15693 12.5797 8.18065 12.617 8.20719L12.4998 8.1362ZM13.5779 7.96267L13.5427 7.93506L13.6443 8.02971C13.6248 8.00605 13.6013 7.98633 13.5779 7.96267ZM12.4998 8.1362C12.5405 8.15693 12.5797 8.18065 12.617 8.20719L12.4998 8.1362ZM13.5779 7.96267L13.5427 7.93506L13.6443 8.02971C13.6248 8.00605 13.6013 7.98633 13.5779 7.96267ZM12.4998 8.1362C12.5405 8.15693 12.5797 8.18065 12.617 8.20719L12.4998 8.1362ZM13.5779 7.96267L13.5427 7.93506L13.6443 8.02971C13.6248 8.00605 13.6013 7.98633 13.5779 7.96267ZM12.4998 8.1362C12.5405 8.15693 12.5797 8.18065 12.617 8.20719L12.4998 8.1362ZM13.5779 7.96267L13.5427 7.93506L13.6443 8.02971C13.6248 8.00605 13.6013 7.98633 13.5779 7.96267ZM12.4998 8.1362C12.5405 8.15693 12.5797 8.18065 12.617 8.20719L12.4998 8.1362ZM13.5779 7.96267L13.5427 7.93506L13.6443 8.02971C13.6248 8.00605 13.6013 7.98633 13.5779 7.96267ZM12.4998 8.1362C12.5405 8.15693 12.5797 8.18065 12.617 8.20719L12.4998 8.1362ZM13.5779 7.96267L13.5427 7.93506L13.6443 8.02971C13.6248 8.00605 13.6013 7.98633 13.5779 7.96267ZM12.4998 8.1362C12.5405 8.15693 12.5797 8.18065 12.617 8.20719L12.4998 8.1362ZM13.5779 7.96267L13.5427 7.93506L13.6443 8.02971C13.6248 8.00605 13.6013 7.98633 13.5779 7.96267ZM12.4998 8.1362C12.5405 8.15693 12.5797 8.18065 12.617 8.20719L12.4998 8.1362ZM13.5779 7.96267L13.5427 7.93506L13.6443 8.02971C13.6248 8.00605 13.6013 7.98633 13.5779 7.96267ZM12.4998 8.1362C12.5405 8.15693 12.5797 8.18065 12.617 8.20719L12.4998 8.1362ZM13.5779 7.96267L13.5427 7.93506L13.6443 8.02971C13.6248 8.00605 13.6013 7.98633 13.5779 7.96267ZM12.4998 8.1362C12.5405 8.15693 12.5797 8.18065 12.617 8.20719L12.4998 8.1362ZM13.5779 7.96267L13.5427 7.93506L13.6443 8.02971C13.6248 8.00605 13.6013 7.98633 13.5779 7.96267ZM12.4998 8.1362C12.5405 8.15693 12.5797 8.18065 12.617 8.20719L12.4998 8.1362ZM13.5779 7.96267L13.5427 7.93506L13.6443 8.02971C13.6248 8.00605 13.6013 7.98633 13.5779 7.96267ZM12.4998 8.1362C12.5405 8.15693 12.5797 8.18065 12.617 8.20719L12.4998 8.1362ZM13.5779 7.96267L13.5427 7.93506L13.6443 8.02971C13.6248 8.00605 13.6013 7.98633 13.5779 7.96267ZM12.4998 8.1362C12.5405 8.15693 12.5797 8.18065 12.617 8.20719L12.4998 8.1362Z" fill="currentColor"/>
<path d="M17.8864 17.3295L17.1872 16.6393L14.7419 14.1743C14.6758 14.1077 14.6354 14.0194 14.6283 13.9253C14.6211 13.8312 14.6476 13.7377 14.7029 13.6616C15.1593 13.0317 15.4544 12.2976 15.5617 11.5246C15.6691 10.7517 15.5855 9.96389 15.3183 9.23148C15.0511 8.49907 14.6086 7.84475 14.0303 7.3268C13.452 6.80885 12.7558 6.44336 12.0037 6.26286C11.6541 6.18037 11.2963 6.13803 10.9373 6.13666C9.69413 6.13666 8.50187 6.63528 7.62281 7.52283C6.74374 8.41038 6.24989 9.61416 6.24989 10.8693C6.24989 12.1245 6.74374 13.3283 7.62281 14.2159C8.50187 15.1034 9.69413 15.602 10.9373 15.602C11.3016 15.6019 11.6646 15.5595 12.0193 15.4758C12.627 15.3288 13.1994 15.0606 13.7029 14.687C13.7699 14.6381 13.8506 14.6118 13.9334 14.6121C13.9848 14.6118 14.0357 14.6218 14.0833 14.6414C14.1309 14.661 14.1742 14.6899 14.2107 14.7265L16.1286 16.6669L17.3356 17.8856C17.4084 17.9584 17.5066 17.9995 17.6091 17.9999C17.6605 18.0002 17.7114 17.9903 17.759 17.9707C17.8066 17.951 17.8499 17.9221 17.8864 17.8856C17.9592 17.8117 18 17.7117 18 17.6075C18 17.5033 17.9592 17.4034 17.8864 17.3295ZM14.4763 12.5297C14.4422 12.6117 14.4017 12.6909 14.3552 12.7664C14.1929 13.0743 13.9877 13.3572 13.7459 13.6064C13.6834 13.6735 13.613 13.7405 13.5427 13.8036C13.4664 13.8758 13.3855 13.943 13.3006 14.0048C13.2217 14.0671 13.1395 14.125 13.0545 14.1783C12.9802 14.2296 12.9021 14.2769 12.8201 14.3242C12.6519 14.4165 12.4769 14.4956 12.2967 14.5608L12.2381 14.5845C11.8214 14.7382 11.3809 14.8156 10.9373 14.8133C9.90133 14.8133 8.90778 14.3977 8.17522 13.6581C7.44267 12.9185 7.03113 11.9153 7.03113 10.8693C7.03113 9.82336 7.44267 8.82021 8.17522 8.08058C8.90778 7.34096 9.90133 6.92544 10.9373 6.92544C11.3809 6.92341 11.8213 7.00086 12.2381 7.15419C12.2572 7.15965 12.2756 7.16761 12.2928 7.17785C12.3704 7.20226 12.4462 7.23258 12.5193 7.26856L12.6092 7.31194L12.7927 7.40265L12.8318 7.42632C12.8913 7.45668 12.9487 7.49093 13.0037 7.52886L13.0662 7.5683C13.0914 7.5827 13.115 7.59989 13.1365 7.61957C13.1932 7.65273 13.2468 7.69102 13.2966 7.73394L13.3201 7.75366C13.3543 7.77776 13.3869 7.80411 13.4177 7.83254C13.4522 7.8578 13.4848 7.88547 13.5154 7.91536L13.5584 7.9548C13.5818 7.97846 13.6052 7.99818 13.6248 8.02185C13.6443 8.04551 13.6912 8.08889 13.7263 8.12439C13.7968 8.19555 13.8633 8.2706 13.9255 8.34919C14.0762 8.54027 14.2071 8.74643 14.3162 8.96444C14.3627 9.03995 14.4032 9.11908 14.4373 9.20107C14.4875 9.3017 14.5306 9.40582 14.5662 9.51264C14.6059 9.61848 14.6398 9.72644 14.6677 9.83604C14.6985 9.94634 14.7232 10.0583 14.7419 10.1713C14.7815 10.2705 14.8154 10.3719 14.8435 10.475C14.8454 10.4867 14.8454 10.4987 14.8435 10.5105C14.8643 10.7387 14.8643 10.9684 14.8435 11.1967C14.8504 11.2185 14.8504 11.2419 14.8435 11.2637C14.8349 11.3683 14.8206 11.4723 14.8005 11.5753C14.7818 11.6883 14.7571 11.8002 14.7263 11.9105C14.6984 12.0201 14.6645 12.1281 14.6247 12.2339C14.5822 12.3359 14.5326 12.4348 14.4763 12.5297Z" fill="currentColor"/>
<path d="M13.5779 7.96263L13.5349 7.92319L13.6365 8.01784C13.6248 8.00601 13.6013 7.98629 13.5779 7.96263ZM13.3279 7.7536H13.3474C13.3758 7.76994 13.4021 7.78982 13.4256 7.81276C13.3942 7.79108 13.3616 7.77133 13.3279 7.7536ZM12.4998 8.14799C12.5405 8.16872 12.5797 8.19245 12.617 8.21898L12.4998 8.14799Z" fill="currentColor"/>
<path d="M13.5779 7.96263L13.5349 7.92319L13.6365 8.01784C13.6248 8.00601 13.6013 7.98629 13.5779 7.96263ZM13.3279 7.7536H13.3474C13.3758 7.76994 13.4021 7.78982 13.4256 7.81276C13.3942 7.79108 13.3616 7.77133 13.3279 7.7536ZM12.4998 8.14799C12.5405 8.16872 12.5797 8.19245 12.617 8.21898L12.4998 8.14799Z" fill="currentColor"/>
<path d="M14.0623 10.8693C14.0623 10.9508 14.0623 11.0337 14.0623 11.1178C14.0623 11.1691 14.0623 11.2203 14.0623 11.2716C14.0644 11.2939 14.0644 11.3163 14.0623 11.3386C14.0645 11.357 14.0645 11.3755 14.0623 11.3939C14.0569 11.4457 14.0478 11.4972 14.0349 11.5477C14.0303 11.5757 14.0237 11.6034 14.0154 11.6305C14.0154 11.6818 13.988 11.733 13.9724 11.7843C13.9214 11.9633 13.852 12.1365 13.7654 12.301C13.7341 12.3641 13.699 12.4311 13.6638 12.4903C13.6124 12.5796 13.555 12.6653 13.492 12.7466C13.4816 12.7646 13.4698 12.7818 13.4568 12.7979C13.4342 12.8299 13.4094 12.8602 13.3826 12.8886C13.3357 12.9478 13.2849 13.003 13.2342 13.0582C13.1834 13.1134 13.1521 13.141 13.1092 13.1805C13.0559 13.2323 12.9999 13.281 12.9412 13.3264C12.9014 13.3604 12.8597 13.392 12.8162 13.421C12.7732 13.4565 12.7263 13.4881 12.6795 13.5196L12.5779 13.5827H12.5467V8.14014C12.5874 8.16087 12.6266 8.18459 12.6638 8.21113C12.7107 8.24268 12.7576 8.27423 12.8006 8.30972C12.8447 8.33775 12.8865 8.36941 12.9256 8.40438C12.9842 8.44977 13.0403 8.49849 13.0935 8.5503C13.1365 8.58974 13.1795 8.62918 13.2185 8.67256C13.2576 8.71595 13.3201 8.78299 13.367 8.84215C13.3938 8.87058 13.4186 8.9009 13.4412 8.93286C13.4542 8.94899 13.466 8.96613 13.4763 8.98413C13.5394 9.0655 13.5968 9.15115 13.6482 9.24049C13.6852 9.30183 13.7191 9.36501 13.7498 9.42979C13.751 9.43895 13.751 9.44824 13.7498 9.4574C13.785 9.5252 13.8163 9.59499 13.8435 9.66643C13.8445 9.67297 13.8445 9.67961 13.8435 9.68615C13.8435 9.73742 13.8826 9.78475 13.8982 9.83602C13.914 9.87138 13.9258 9.90842 13.9334 9.94645C13.9334 9.99772 13.9646 10.049 13.9763 10.1003C13.9847 10.1274 13.9912 10.1551 13.9959 10.1831C14.0091 10.2335 14.0182 10.285 14.0232 10.3369C14.0254 10.3552 14.0254 10.3738 14.0232 10.3921C14.0253 10.4144 14.0253 10.4369 14.0232 10.4592C14.0232 10.5104 14.0232 10.5617 14.0232 10.613C14.0232 10.6642 14.0623 10.7865 14.0623 10.8693Z" fill="currentColor"/>
<path d="M11.7185 7.81664V13.9218C11.7071 13.9254 11.6948 13.9254 11.6834 13.9218C11.6453 13.9347 11.606 13.944 11.5662 13.9494C11.5534 13.9528 11.54 13.9528 11.5271 13.9494L11.3318 13.981H11.2967C11.2616 13.9848 11.2263 13.9848 11.1912 13.981C11.1092 13.981 11.0232 13.981 10.9373 13.981C10.1085 13.981 9.31368 13.6486 8.72764 13.0569C8.1416 12.4652 7.81236 11.6626 7.81236 10.8258C7.81236 9.98905 8.1416 9.18653 8.72764 8.59483C9.31368 8.00313 10.1085 7.67072 10.9373 7.67072C11.0232 7.67072 11.1092 7.67072 11.1912 7.67072H11.2186C11.2444 7.66665 11.2708 7.66665 11.2967 7.67072H11.3279L11.5232 7.70227L11.6873 7.73776L11.7185 7.81664Z" fill="currentColor"/>
</svg>
